<?xml version="1.0" encoding="UTF-8"?>
<svg id="Layer_5" data-name="Layer 5" xmlns="http://www.w3.org/2000/svg" viewBox="0 0 152.64 152.71">
  <defs>
    <style>
      .cls-1 {
        fill: #be3526;
      }
    </style>
  </defs>
  <path class="cls-1" d="M82.02,66.3c-3.5-1.34-6.64-2.9-9.2-5.98-3.02-3.65-3.75-7.65-4.11-9.69-1.21-7.25-2.19-21.47-2.19-21.47-.26,6.91-.95,15.36-2.64,21.8-.75,2.86-1.84,5.85-4.2,8.69-2.06,2.48-4.58,4.22-8.16,5.88-9.89,4.57-21.82,5.63-26.67,5.93,7.09.32,16.88,1.45,26.3,5.05,3.5,1.34,6.64,2.9,9.2,5.99,3.02,3.65,3.75,7.65,4.1,9.69,1.29,7.73,2.13,24.73,2.14,24.51.02.44.03.86.04,1.28,0,0,.87-19.24,2.68-26.12.75-2.86,1.84-5.85,4.2-8.69,2.06-2.48,4.58-4.22,8.16-5.88,9.89-4.58,21.82-5.64,26.67-5.95-7.09-.32-16.88-1.44-26.3-5.03Z"/>
</svg>